#!OML:ASF E:\Steps\Project 1\Capture day 1\Session 2\Subject.ASF
:FULLY-SPECIFIED
:DEGREES
439
root 9.66798 16.3681 9.07176 26.4829 -0.12076 -359.427
lowerback -28.6636 -1.2574 -4.09403
upperback -3.17827 -0.25234 -0.715567
thorax 12.3484 -0.297745 1.45155
lowerneck 2.45747 -3.75866 -1.79027
upperneck -19.9994 -4.13341 6.77409
head -6.25657 -2.39323 2.70716
rclavicle 1.04362e-015 1.19271e-014
rhumerus -29.357 -24.1902 -81.9503
rradius 19.4372
rwrist 11.4095
rhand -11.2407 -51.039
rfingers 7.12502
rthumb 14.7886 -80.4913
lclavicle 1.04362e-015 1.19271e-014
lhumerus -25.3609 3.42184 84.9716
lradius 17.0222
lwrist -11.0905
lhand -21.8828 -11.9911
lfingers 7.12502
lthumb 4.52189 17.9406
rfemur -24.5456 5.96404 19.0161
rtibia 6.59244
rfoot -15.5613 -9.38379
rtoes -38.3472
lfemur -23.793 -8.23299 -18.0905
ltibia 7.24172
lfoot -7.17222 3.9016
ltoes -39.665
440
root 9.66424 16.3675 9.07046 26.4461 -0.214553 -359.324
lowerback -28.9915 -1.28161 -4.22271
upperback -2.97857 -0.216659 -0.734872
thorax 12.7522 -0.297164 1.51413
lowerneck 2.31944 -3.76903 -1.7863
upperneck -20.1281 -4.14291 6.77257
head -6.27317 -2.39772 2.70661
rclavicle 7.95139e-016 5.56597e-015
rhumerus -28.8274 -23.5068 -82.463
rradius 19.5665
rwrist 11.0969
rhand -10.8433 -51.8903
rfingers 7.12502
rthumb 15.1714 -81.3142
lclavicle 7.95139e-016 5.56597e-015
lhumerus -25.0674 2.9117 85.2254
lradius 17.1693
lwrist -10.6331
lhand -22.2153 -11.9926
lfingers 7.12502
lthumb 4.20084 17.9457
rfemur -24.5652 6.17333 18.8246
rtibia 6.58282
rfoot -15.3423 -9.6028
rtoes -39.2444
lfemur -23.721 -8.17174 -18.2227
ltibia 7.18391
lfoot -7.1466 3.86471
ltoes -39.3949
441
root 9.6526 16.3685 9.07223 26.4528 -0.447305 -359.162
lowerback -29.2432 -1.33288 -4.55031
upperback -2.92896 -0.159879 -0.754393
thorax 12.9395 -0.292564 1.70163
lowerneck 2.3331 -3.77118 -1.80499
upperneck -20.0939 -4.14895 6.77399
head -6.26383 -2.3994 2.7099
rclavicle -8.44835e-016 -9.14409e-015
rhumerus -28.6031 -22.9031 -82.8175
rradius 19.6854
rwrist 10.813
rhand -10.5947 -52.3202
rfingers 7.12502
rthumb 15.4109 -81.7257
lclavicle -8.44835e-016 -9.14409e-015
lhumerus -25.0993 2.58954 85.4001
lradius 17.3883
lwrist -10.2974
lhand -22.2679 -11.6654
lfingers 7.12502
lthumb 4.15006 18.2739
rfemur -24.6721 6.78805 18.4402
rtibia 6.58238
rfoot -15.2164 -10.0813
rtoes -39.1317
lfemur -23.6987 -7.99981 -18.3827
ltibia 7.11723
lfoot -7.12247 3.86923
ltoes -39.2622
442
root 9.66176 16.3659 9.06132 26.4711 -0.232651 -359.231
lowerback -29.2188 -1.35621 -4.30683
upperback -2.98315 -0.27654 -0.718221
thorax 12.8693 -0.331407 1.55729
lowerneck 2.38949 -3.75089 -1.83369
upperneck -20.022 -4.13098 6.74933
head -6.25153 -2.38688 2.70532
rclavicle -8.79622e-015 -7.95139e-016
rhumerus -28.4494 -22.9569 -82.8431
rradius 19.5474
rwrist 11.112
rhand -10.6754 -52.0695
rfingers 7.12502
rthumb 15.3332 -81.481
lclavicle -8.79622e-015 -7.95139e-016
lhumerus -25.225 2.13007 85.621
lradius 17.6237
lwrist -9.7228
lhand -22.222 -11.4404
lfingers 7.12502
lthumb 4.19436 18.498
rfemur -24.6941 6.24561 18.6865
rtibia 6.63219
rfoot -15.3463 -9.61469
rtoes -38.6035
lfemur -23.7748 -7.96108 -18.3724
ltibia 7.16716
lfoot -7.10245 3.584
ltoes -39.8069
443
root 9.66378 16.363 9.0531 26.5797 -0.0627047 -359.279
lowerback -29.2857 -1.41298 -4.19719
upperback -3.05111 -0.388618 -0.682805
thorax 12.8302 -0.375867 1.49087
lowerneck 2.43367 -3.74125 -1.81025
upperneck -20.0233 -4.11881 6.7331
head -6.26127 -2.3821 2.69678
rclavicle 4.96962e-015 3.97569e-016
rhumerus -28.3457 -22.8376 -82.9773
rradius 19.6025
rwrist 11.0708
rhand -10.7369 -51.6011
rfingers 7.12502
rthumb 15.2739 -81.0172
lclavicle 4.96962e-015 3.97569e-016
lhumerus -25.3544 1.6218 85.8119
lradius 17.861
lwrist -9.04833
lhand -22.417 -11.8764
lfingers 7.12502
lthumb 4.00614 18.0657
rfemur -24.8184 5.91972 18.8504
rtibia 6.66023
rfoot -15.4574 -9.37557
rtoes -37.9572
lfemur -23.9703 -7.97611 -18.3024
ltibia 7.24473
lfoot -7.12069 3.41257
ltoes -40.1272
444
root 9.66165 16.3627 9.04616 26.6978 0.058619 -359.351
lowerback -29.352 -1.45163 -4.09711
upperback -3.13354 -0.471704 -0.668099
thorax 12.7717 -0.40661 1.41757
lowerneck 2.5523 -3.74524 -1.7526
upperneck -20.0634 -4.11927 6.72739
head -6.29646 -2.38803 2.68954
rclavicle -1.04362e-015 -7.55382e-015
rhumerus -28.3078 -22.4179 -83.2611
rradius 19.7948
rwrist 10.6763
rhand -10.7184 -51.3994
rfingers 7.12502
rthumb 15.2917 -80.8141
lclavicle -1.04362e-015 -7.55382e-015
lhumerus -25.4962 1.31621 85.8824
lradius 18.0773
lwrist -8.63138
lhand -22.4899 -12.1835
lfingers 7.12502
lthumb 3.93571 17.7599
rfemur -24.953 5.89577 18.9623
rtibia 6.65169
rfoot -15.4794 -9.46571
rtoes -37.7746
lfemur -24.1767 -8.03312 -18.1499
ltibia 7.3161
lfoot -7.11919 3.43296
ltoes -40.3029
445
root 9.66023 16.3634 9.03944 26.8165 0.197759 -359.473
lowerback -29.4624 -1.47627 -3.93281
upperback -3.21429 -0.556962 -0.638859
thorax 12.7375 -0.435989 1.32259
lowerneck 2.695 -3.73825 -1.71907
upperneck -20.0111 -4.10697 6.7391
head -6.30587 -2.38676 2.68922
rclavicle -6.06293e-015 9.54166e-015
rhumerus -28.2804 -21.9933 -83.5201
rradius 19.976
rwrist 10.2513
rhand -10.6871 -51.6183
rfingers 7.12502
rthumb 15.3219 -81.0307
lclavicle -6.06293e-015 9.54166e-015
lhumerus -25.5911 1.02434 85.9736
lradius 18.2781
lwrist -8.37976
lhand -22.4585 -11.8015
lfingers 7.12502
lthumb 3.96601 18.1413
rfemur -25.0937 5.88701 19.1164
rtibia 6.63342
rfoot -15.4606 -9.52328
rtoes -37.9632
lfemur -24.3894 -8.0897 -17.922
ltibia 7.37107
lfoot -7.06839 3.43913
ltoes -40.2016
446
root 9.6595 16.362 9.03531 26.8724 0.364048 -359.634
lowerback -29.7741 -1.51901 -3.77241
upperback -2.77435 -0.656651 -0.510195
thorax 12.5922 -0.473291 1.25298
lowerneck 2.56398 -3.71763 -1.73375
upperneck -19.9039 -4.08921 6.70829
head -6.25016 -2.3722 2.67463
rclavicle -2.48481e-015 -5.96354e-015
rhumerus -28.113 -21.7081 -83.7022
rradius 20.1506
rwrist 9.96601
rhand -10.6472 -51.7528
rfingers 7.12502
rthumb 15.3603 -81.1622
lclavicle -2.48481e-015 -5.96354e-015
lhumerus -25.524 0.818116 86.154
lradius 18.4804
lwrist -8.22685
lhand -22.6148 -11.5845
lfingers 7.12502
lthumb 3.81506 18.3611
rfemur -25.1277 5.84446 19.341
rtibia 6.57593
rfoot -15.4482 -9.52691
rtoes -37.9353
lfemur -24.5086 -8.11693 -17.6693
ltibia 7.38462
lfoot -7.05013 3.40309
ltoes -40.1208
447
root 9.65861 16.3618 9.0315 26.8372 0.453068 -359.692
lowerback -30.0314 -1.55955 -3.74885
upperback -2.57557 -0.710213 -0.435558
thorax 12.9356 -0.504975 1.29548
lowerneck 2.2338 -3.71017 -1.7259
upperneck -19.9183 -4.09333 6.61603
head -6.19978 -2.364 2.63632
rclavicle 3.97569e-015 -1.03368e-014
rhumerus -27.6374 -21.958 -83.7496
rradius 20.0545
rwrist 10.2339
rhand -10.5427 -51.7358
rfingers 7.12502
rthumb 15.461 -81.1375
lclavicle 3.97569e-015 -1.03368e-014
lhumerus -25.2469 0.729983 86.3265
lradius 18.6523
lwrist -8.12806
lhand -22.7218 -11.8628
lfingers 7.12502
lthumb 3.7118 18.0846
rfemur -25.0577 5.86548 19.4195
rtibia 6.50062
rfoot -15.4237 -9.56606
rtoes -37.7235
lfemur -24.4865 -8.14273 -17.58
ltibia 7.3422
lfoot -7.02976 3.39683
ltoes -40.3072
448
root 9.65737 16.3637 9.02737 26.8138 0.486846 -359.674
lowerback -30.2375 -1.59201 -3.81419
upperback -2.41212 -0.72148 -0.400498
thorax 13.2147 -0.519973 1.36057
lowerneck 2.06379 -3.70744 -1.6918
upperneck -19.9778 -4.09442 6.55744
head -6.19158 -2.36116 2.60946
rclavicle 7.50412e-015 1.11319e-014
rhumerus -27.2046 -22.1316 -83.8346
rradius 20.0332
rwrist 10.3917
rhand -10.3489 -51.8835
rfingers 7.12502
rthumb 15.6477 -81.2707
lclavicle 7.50412e-015 1.11319e-014
lhumerus -24.9767 0.562413 86.5022
lradius 18.7146
lwrist -7.86294
lhand -22.8072 -12.2374
lfingers 7.12502
lthumb 3.62926 17.7114
rfemur -25.0657 5.87374 19.4128
rtibia 6.65571
rfoot -15.5486 -9.6112
rtoes -38.027
lfemur -24.4725 -8.18707 -17.5863
ltibia 7.31764
lfoot -6.95149 3.43079
ltoes -40.2381
